<?xml version="1.0" standalone="no"?><!DOCTYPE svg PUBLIC "-//W3C//DTD SVG 1.1//EN" "http://www.w3.org/Graphics/SVG/1.1/DTD/svg11.dtd"><svg t="1546417579435" class="icon" style="" viewBox="0 0 1024 1024" version="1.1" xmlns="http://www.w3.org/2000/svg" p-id="13627" xmlns:xlink="http://www.w3.org/1999/xlink" width="200" height="200"><defs><style type="text/css"></style></defs><path d="M511.727801 959.481567C267.182178 960.248024 62.201667 760.578472 64.48057 507.709277 66.729797 258.148431 272.906553 59.559491 521.511631 64.609507c239.10982 4.857635 440.522062 200.977337 438.002682 452.372971C957.036889 764.261351 754.962567 960.39538 511.727801 959.481567zM407.123394 475.052506c-22.341844 0-44.684712-0.13917-67.025533 0.034792-29.541827 0.229221-51.650357 22.596647-51.631938 52.049446 0.00921 15.687284 0.246617 31.374568 0.233314 47.061852-0.021489 26.942629-0.296759 53.885258-0.206708 80.826863 0.086981 26.096355 16.743336 46.876634 41.386596 50.916647 8.838296 1.449002 18.008142 1.113357 27.028587 1.149173 15.85306 0.062422 31.706119-0.273223 47.560202-0.338714 24.712845-0.101307 49.443086 0.441045 74.133418-0.320295 25.464975-0.784876 46.280046-23.324218 46.296419-48.831148 0.028653-44.342927 0.01535-88.685855-0.013303-133.028782-0.002047-2.376117-0.071631-4.795213-0.50449-7.120165-4.777817-25.666566-24.575722-42.132586-51.254338-42.360783C451.126584 474.904127 429.124478 475.05353 407.123394 475.052506zM450.78173 446.202435c13.127995 0 26.257014 0.057305 39.383986-0.013303 20.808932-0.110517 35.286668-14.611789 35.346019-35.469839 0.068562-24.210401 0.063445-48.420803 0.002047-72.631204-0.053212-20.86726-14.440897-35.437094-35.282574-35.542494-26.085098-0.132006-52.172243-0.132006-78.257342 0.001023-20.171412 0.103354-34.494629 14.385639-34.597983 34.472116-0.12689 24.891923-0.110517 49.78487-0.00614 74.676793 0.084934 20.126386 14.453177 34.403554 34.538631 34.495652C424.865477 446.251553 437.823604 446.202435 450.78173 446.202435zM658.357346 446.202435c12.954033 0 25.908066 0 38.862099 0 0.170892 0 0.340761 0.001023 0.511653-0.001023 19.87363-0.274246 34.047444-14.518668 34.078143-34.345226 0.037862-24.88476 0.026606-49.770544 0.00307-74.655304-0.01842-19.705807-13.625322-34.278711-33.282011-34.574447-26.924209-0.405229-53.860698-0.24457-80.790024-0.056282-19.915585 0.13917-34.492582 17.517979-33.900088 34.868135 0.837064 24.515347 0.905626 49.107441-0.01228 73.617671-0.705058 18.828834 15.838733 35.684734 35.157731 35.20992C632.102379 445.941492 645.233444 446.202435 658.357346 446.202435zM584.052013 547.294854c0 9.374508-0.049119 18.749016 0.01842 28.122501 0.039909 5.614881-0.447185 11.354606 0.534166 16.818037 2.822278 15.71082 16.71059 26.803459 34.402531 27.056216 26.412556 0.3776 52.839439 0.409322 79.251995 0 18.96698-0.293689 33.359782-14.421454 33.502022-32.337499 0.208754-26.245757 0.209778-52.496631-0.005117-78.742389-0.13917-17.042141-13.219069-31.625278-30.176276-32.126698-27.752064-0.820692-55.540967-0.596588-83.312474-0.499373-20.418029 0.071631-35.857672 17.074887-34.370809 36.95261C584.758094 524.062733 584.052013 535.704888 584.052013 547.294854z" p-id="13628" data-spm-anchor-id="a313x.7781069.0.i69" class="selected" fill="#4e8cee"></path><path d="M394.026098 619.628276c-17.308201-13.797237-33.911344-27.03268-50.880831-40.559764-16.84055 13.405311-33.58184 26.731828-51.049676 40.637536-0.127913-2.422166-0.286526-4.025687-0.286526-5.628184-0.014326-29.15297-0.058328-58.304917 0.00307-87.457888 0.058328-27.864628 20.141736-48.173163 47.911196-48.40136 16.535605-0.1361 33.075303 0.101307 49.608861-0.115634 4.110621-0.054235 5.272074 1.330298 5.263887 5.265934-0.096191 43.644009-0.056282 87.286995-0.077771 130.931005C394.516262 615.767342 394.255319 617.23374 394.026098 619.628276zM378.162806 515.674693c-0.228197-0.535189-0.457418-1.069355-0.685615-1.604544-6.081509 0-12.174274-0.222057-18.240433 0.079818-3.854794 0.192382-5.833869-0.973164-6.930853-4.844332-1.675152-5.916756-4.000104-11.649318-6.048763-17.45965-3.039219 5.475711-5.163603 10.650571-6.670933 15.999392-1.399883 4.966105-4.319375 6.794753-9.31311 6.547113-5.355985-0.26606-10.735505-0.060375-16.104793-0.060375-0.174985 0.493234-0.349971 0.98749-0.524956 1.480724 4.473895 3.482311 8.725732 7.315616 13.488199 10.344602 4.293793 2.731204 4.943592 5.679349 3.221368 10.224876-2.033309 5.366218-3.402493 10.983145-5.060249 16.490579 5.912663-2.88777 10.971889-6.04774 15.604396-9.742898 3.371794-2.689249 5.947456-2.880607 9.410324-0.110517 4.683672 3.745301 9.826809 6.915503 14.772448 10.332323-0.607844-5.773494-1.769296-10.902304-3.695159-15.72617-2.165316-5.424546-1.468444-9.128915 3.89368-12.275581C369.881189 522.649548 373.891526 518.939039 378.162806 515.674693z" p-id="13629" data-spm-anchor-id="a313x.7781069.0.i71" class="" fill="#4e8cee"></path></svg>