<?xml version="1.0" standalone="no"?><!DOCTYPE svg PUBLIC "-//W3C//DTD SVG 1.1//EN" "http://www.w3.org/Graphics/SVG/1.1/DTD/svg11.dtd"><svg t="1546416805043" class="icon" style="" viewBox="0 0 1025 1024" version="1.1" xmlns="http://www.w3.org/2000/svg" p-id="4653" xmlns:xlink="http://www.w3.org/1999/xlink" width="200.1953125" height="200"><defs><style type="text/css"></style></defs><path d="M553.711926 274.185335c26.196282 0 50.440062 10.312513 50.440062 85.175104 0 46.323807-10.141262 77.622595-30.127537 93.061364l-108.150132 0c21.445026-16.937521 36.216294-38.852547 42.983802-63.968828 3.750005-13.916267 6.895008-27.730034 9.672512-39.907549C529.073146 302.275369 536.704405 274.185335 553.711926 274.185335L553.711926 274.185335z" p-id="4654" data-spm-anchor-id="a313x.7781069.0.i33" class="selected" fill="#4e8cee"></path><path d="M638.404529 749.812165 382.705467 749.812165 382.705467 478.130584l30.278787 0 0.32625 0.796251 2.978754-0.796251L725.713386 478.130584c1.670002 0 3.012504 1.357502 3.012504 3.017504l0 170.382708c0 21.098776-11.503764 45.892556-30.761288 66.352581C679.137079 737.883401 656.865802 749.812165 638.404529 749.812165L638.404529 749.812165z" p-id="4655" data-spm-anchor-id="a313x.7781069.0.i31" class="" fill="#4e8cee"></path><path d="M295.29286 481.153087c0-1.665002 1.357502-3.012504 3.022504-3.012504l58.687572 0 0 271.679082-58.687572 0c-1.665002 0-3.022504-1.356252-3.022504-3.017504L295.29286 481.153087 295.29286 481.153087z" p-id="4656" data-spm-anchor-id="a313x.7781069.0.i32" class="selected" fill="#4e8cee"></path><path d="M512.016875 0C229.68778 0 0 229.68778 0 512.016875c0 282.310345 229.68778 511.983125 512.016875 511.983125 282.324095 0 512.011875-229.67278 512.011875-511.983125C1024.03 229.68778 794.34222 0 512.016875 0zM754.449671 651.535795c0 27.893784-13.760017 58.505071-37.758796 83.978853-23.608779 25.053781-52.876315 40.015049-78.286346 40.015049L298.315364 775.529697c-15.835019 0-28.725035-12.891266-28.725035-28.730035L269.590329 481.153087c0-15.835019 12.885016-28.726285 28.725035-28.726285l114.228889 0c4.985006-1.640002 16.73377-6.020007 29.341286-14.355018 21.782527-14.400018 35.952544-33.335041 42.138801-56.303819 3.550004-13.183766 6.523758-26.225032 9.403761-38.832547 5.640007-24.72253 10.483763-45.967556 18.071272-62.412576 9.971262-21.572526 23.770029-32.056289 42.212552-32.056289 24.52128 0 42.651302 8.08126 55.410068 24.71753 13.955017 18.183772 20.737525 46.367557 20.737525 86.176355 0 35.566293-5.815007 64.443829-17.281271 85.850105-1.341252 2.490003-2.762503 4.897506-4.271255 7.211259l117.407643 0c15.845019 0 28.735035 12.891266 28.735035 28.731285L754.449671 651.535795z" p-id="4657" data-spm-anchor-id="a313x.7781069.0.i29" class="selected" fill="#4e8cee"></path><path d="M512.016875 995.323715" p-id="4658"></path></svg>