<?xml version="1.0" standalone="no"?><!DOCTYPE svg PUBLIC "-//W3C//DTD SVG 1.1//EN" "http://www.w3.org/Graphics/SVG/1.1/DTD/svg11.dtd"><svg t="1548729182136" class="icon" style="" viewBox="0 0 1024 1024" version="1.1" xmlns="http://www.w3.org/2000/svg" p-id="533" xmlns:xlink="http://www.w3.org/1999/xlink" width="200" height="200"><defs><style type="text/css"></style></defs><path d="M552.64 235.072v178.4a38.592 38.592 0 0 1-77.216 0V231.168l-72.512 72.544a38.592 38.592 0 1 1-54.592-54.592l163.776-163.776 163.776 163.776a38.592 38.592 0 1 1-54.592 54.592L552.64 235.072z m38.592 120.48h270.24c21.312 0 38.592 17.28 38.592 38.592v115.84H128v-115.84c0-21.312 17.28-38.592 38.592-38.592h270.24v57.92a77.216 77.216 0 1 0 154.4 0v-57.92z m308.832 231.616v270.24c0 21.312-17.28 38.592-38.592 38.592H166.592C145.28 896 128 878.72 128 857.408v-270.24h772.064zM205.216 722.272h212.32V645.12H205.216v77.184z" p-id="534" data-spm-anchor-id="a313x.7781069.0.i0" class="selected" fill="#4e8cee"></path></svg>