<?xml version="1.0" standalone="no"?><!DOCTYPE svg PUBLIC "-//W3C//DTD SVG 1.1//EN" "http://www.w3.org/Graphics/SVG/1.1/DTD/svg11.dtd"><svg t="1546415612824" class="icon" style="" viewBox="0 0 1024 1024" version="1.1" xmlns="http://www.w3.org/2000/svg" p-id="7461" xmlns:xlink="http://www.w3.org/1999/xlink" width="200" height="200"><defs><style type="text/css"></style></defs><path d="M511.38 866.837c51.264 0 92.858-27.719 92.858-61.905 0-0.483-185.717 0.15-185.717 0 0 34.186 41.59 61.905 92.859 61.905z m289.458-246.655l130.584 113.321c12.605 11.699 16.686 29.835 10.338 45.735-6.287 15.899-21.826 26.358-39.056 26.358H667.472c-13.3 68.948-72.907 123.146-156.092 123.146-83.186 0-142.222-54.198-155.523-123.146H120.056c-17.23 0-32.769-10.459-39.056-26.358-6.349-15.9-2.268-34.036 10.338-45.735L222.89 620.182v-193.76c0-116.949 75.386-214.857 184.749-242.183 6.5-51.356 50.175-91.226 103.741-91.226 53.561 0 97.241 39.87 103.741 91.226 109.363 27.326 185.717 125.234 185.717 242.183v193.76z" p-id="7462" fill="#4e8cee"></path></svg>