<?xml version="1.0" standalone="no"?><!DOCTYPE svg PUBLIC "-//W3C//DTD SVG 1.1//EN" "http://www.w3.org/Graphics/SVG/1.1/DTD/svg11.dtd"><svg t="1546499479599" class="icon" style="" viewBox="0 0 1024 1024" version="1.1" xmlns="http://www.w3.org/2000/svg" p-id="20425" xmlns:xlink="http://www.w3.org/1999/xlink" width="200" height="200"><defs><style type="text/css"></style></defs><path d="M504.213333 787.498667c-33.344 0-61.888 11.434667-84.906667 33.962667-23.210667 22.656-34.965333 50.922667-34.965333 84.010667 0 36.992 12.394667 66.538667 36.842667 87.701333C444.757333 1013.674667 472.682667 1024 504.234667 1024c30.72 0 58.176-10.496 81.621333-31.232 24.085333-21.376 36.309333-50.773333 36.309333-87.274667 0-33.002667-11.477333-61.184-34.133333-83.84C565.376 799.018667 537.216 787.498667 504.213333 787.498667zM557.418667 960.768c-15.552 13.845333-32.96 20.522667-53.205333 20.522667-21.226667 0-39.232-6.634667-55.018667-20.373333-14.912-12.906667-22.122667-31.061333-22.122667-55.466667 0-21.461333 7.232-38.912 22.122667-53.461333 14.976-14.677333 32.96-21.781333 55.04-21.781333 21.504 0 38.976 7.082667 53.504 21.632 14.570667 14.549333 21.653333 32.085333 21.653333 53.632C579.392 929.536 572.202667 947.690667 557.418667 960.768z" p-id="20426" data-spm-anchor-id="a313x.7781069.0.i32" class="selected" fill="#4e8cee"></path><path d="M814.698667 138.581333c-28.181333-42.858667-68.501333-77.077333-119.701333-101.781333C644.288 12.394667 585.365333 0 519.765333 0c-70.698667 0-133.696 14.826667-187.157333 44.074667C279.04 73.365333 237.568 111.104 209.344 156.16c-28.373333 45.418667-42.752 91.2-42.752 136.106667 0 25.6 10.432 49.237333 30.976 70.293333 20.714667 21.312 46.485333 32.085333 76.565333 32.085333 35.349333 0 82.090667-15.338667 103.914667-87.872 14.485333-43.498667 32.085333-76.501333 52.352-98.112 18.133333-19.392 48.192-29.205333 89.386667-29.205333 35.370667 0 63.168 9.813333 84.992 29.952 21.333333 19.754667 31.637333 43.264 31.637333 71.850667 0 14.122667-3.264 26.837333-9.92 38.869333-7.402667 13.290667-16.661333 25.557333-27.498667 36.394667-12.437333 12.394667-32.810667 30.976-58.986667 53.845333-32.042667 28.074667-57.877333 52.714667-76.842667 73.173333-20.181333 21.824-36.544 47.466667-48.682667 76.16-12.309333 29.077333-18.538667 63.573333-18.538667 102.656 0 34.901333 9.984 62.101333 29.568 80.832 19.349333 18.624 43.413333 28.010667 71.530667 28.010667 53.290667 0 88.170667-30.165333 98.005333-84.16 4.629333-20.586667 8.128-35.008 10.389333-43.2 1.984-7.082667 4.821333-14.272 8.512-21.376 3.498667-6.826667 9.173333-14.784 16.832-23.552 8.192-9.408 19.541333-20.693333 33.450667-33.408 52.885333-47.274667 90.282667-81.642667 111.210667-102.08 21.909333-21.482667 41.130667-47.296 57.002667-76.757333 16.490667-30.698667 24.917333-66.602667 24.917333-106.688C857.408 229.290667 843.093333 181.738667 814.698667 138.581333zM794.88 366.4c-13.866667 25.642667-30.421333 48.021333-49.28 66.474667-20.458667 19.989333-57.386667 53.909333-109.973333 100.949333-15.466667 14.08-27.605333 26.218667-36.992 36.992-10.090667 11.562667-17.536 22.08-22.656 32.170667-4.970667 9.578667-8.853333 19.392-11.648 29.248-2.432 8.661333-6.101333 23.786667-11.114667 46.378667-6.378667 34.986667-23.168 49.877333-56.085333 49.877333-16.917333 0-30.634667-5.248-41.92-16.128-11.093333-10.581333-16.448-26.944-16.448-50.048 0-33.301333 5.12-62.208 15.168-85.952 10.24-24.192 23.936-45.674667 40.704-63.850667 17.941333-19.370667 42.709333-42.944 73.578667-70.016 27.178667-23.765333 47.722667-42.517333 60.992-55.765333 13.738667-13.674667 25.344-29.098667 34.666667-45.845333 10.197333-18.282667 15.338667-38.336 15.338667-59.626667 0-40.597333-15.296-75.285333-45.418667-103.189333-29.696-27.434667-68.010667-41.322667-114.005333-41.322667-53.482667 0-94.037333 14.336-120.576 42.730667-24.512 26.133333-45.269333 64.426667-61.909333 114.389333-15.68 52.032-43.584 58.048-63.189333 58.048-18.368 0-33.408-6.272-45.973333-19.178667-12.672-12.992-18.858667-26.218667-18.858667-40.469333 0-36.778667 12.202667-74.944 36.266667-113.429333 24.298667-38.805333 60.458667-71.530667 107.541333-97.28 47.125333-25.770667 103.210667-38.848 166.677333-38.848 59.136 0 111.850667 10.944 156.650667 32.554667 44.224 21.290667 78.72 50.474667 102.613333 86.762667 23.701333 36.074667 35.712 75.733333 35.712 117.930667C814.698667 312.917333 808.021333 341.994667 794.88 366.4z" p-id="20427" data-spm-anchor-id="a313x.7781069.0.i33" class="" fill="#4e8cee"></path></svg>