<?xml version="1.0" standalone="no"?><!DOCTYPE svg PUBLIC "-//W3C//DTD SVG 1.1//EN" "http://www.w3.org/Graphics/SVG/1.1/DTD/svg11.dtd"><svg t="1546500295034" class="icon" style="" viewBox="0 0 1024 1024" version="1.1" xmlns="http://www.w3.org/2000/svg" p-id="24923" data-spm-anchor-id="a313x.7781069.0.i53" xmlns:xlink="http://www.w3.org/1999/xlink" width="200" height="200"><defs><style type="text/css"></style></defs><path d="M909.9 165.7 758.3 14.1c-4.7-4.7-11-7.1-17.7-7.1L133.1 7c-14 0-25.1 10.7-25.1 24.7l0 961.8c0 14 11.1 24.5 25.1 24.5l759.3 0c14 0 24.6-10.5 24.6-24.5L917 183.6C917 176.9 914.7 170.4 909.9 165.7zM740 67.5l119.1 119.1L740 183.9 740 67.5zM158 968 158 57l558 0 0 139.2c0 6.9 5.1 10.5 11.9 10.7l139.1 1.6L867 968 158 968z" p-id="24924" data-spm-anchor-id="a313x.7781069.0.i50" class="selected" fill="#4e8cee"></path><path d="M235 335l582 0 0 26-582 0 0-26Z" p-id="24925" data-spm-anchor-id="a313x.7781069.0.i55" class="selected" fill="#4e8cee"></path><path d="M235 563l582 0 0 26-582 0 0-26Z" p-id="24926" data-spm-anchor-id="a313x.7781069.0.i54" class="selected" fill="#4e8cee"></path><path d="M235 791l582 0 0 25-582 0 0-25Z" p-id="24927" data-spm-anchor-id="a313x.7781069.0.i52" class="selected" fill="#4e8cee"></path></svg>