<?xml version="1.0" standalone="no"?><!DOCTYPE svg PUBLIC "-//W3C//DTD SVG 1.1//EN" "http://www.w3.org/Graphics/SVG/1.1/DTD/svg11.dtd"><svg t="1546417088446" class="icon" style="" viewBox="0 0 1309 1024" version="1.1" xmlns="http://www.w3.org/2000/svg" p-id="6862" xmlns:xlink="http://www.w3.org/1999/xlink" width="255.6640625" height="200"><defs><style type="text/css"></style></defs><path d="M 1292.93 252.68 a 28.5428 28.5428 0 0 0 -38.057 13.4341 L 1000.41 798.607 c -39.1226 -74.9343 -134.608 -130.174 -191.389 -157.708 a 818.568 818.568 0 0 0 -140.811 -52.6709 a 315.873 315.873 0 0 0 156.376 -272.469 C 824.545 141.648 682.896 0 508.786 0 S 193.027 141.648 193.027 315.759 A 315.873 315.873 0 0 0 346.32 586.344 a 785.592 785.592 0 0 0 -135.806 49.3599 c -59.7495 28.2002 -164.958 88.2732 -199.609 173.806 c -22.8342 56.2673 -9.51425 112.268 37.2007 157.556 c 15.7937 15.2228 48.6559 32.6149 172.627 44.9644 c 76.3424 7.6114 175.195 11.8548 278.33 11.9689 h 3.8057 c 102.107 0 200.56 -4.0721 277.607 -11.4171 c 125.95 -12.1402 161.952 -29.2468 179.249 -42.7951 a 170.134 170.134 0 0 0 36.1542 -37.8858 a 28.3525 28.3525 0 0 0 9.30494 -11.0175 l 301.202 -630.148 a 28.5428 28.5428 0 0 0 -13.4532 -38.057 Z M 979.532 127.206 h 265.524 a 28.5428 28.5428 0 1 0 0 -57.0855 H 979.532 a 28.5428 28.5428 0 0 0 0 57.0855 Z" fill="#4e8cee" p-id="6863" data-spm-anchor-id="a313x.7781069.0.i46" class="selected"></path><path d="M 979.532 238.808 h 150.535 a 28.5428 28.5428 0 0 0 0 -57.0855 h -150.535 a 28.5428 28.5428 0 0 0 0 57.0855 Z" fill="#4e8cee" p-id="6864"></path></svg>