<?xml version="1.0" standalone="no"?><!DOCTYPE svg PUBLIC "-//W3C//DTD SVG 1.1//EN" "http://www.w3.org/Graphics/SVG/1.1/DTD/svg11.dtd"><svg t="1546415787921" class="icon" style="" viewBox="0 0 1024 1024" version="1.1" xmlns="http://www.w3.org/2000/svg" p-id="8883" xmlns:xlink="http://www.w3.org/1999/xlink" width="200" height="200"><defs><style type="text/css"></style></defs><path d="M844.30944 181.013333l-0.32-0.789333 0.32 0.789333z m-105.706667 64c-38.613333 6.293333-82.304-7.893333-109.909333-35.413333l-113.045333-112.661333-96.362667 108.053333c-27.626667 30.976-73.429333 46.784-114.154667 39.317333l-131.818666-24.170666c-1.706667 16.213333-2.645333 33.92-2.645334 53.013333 0 215.338667 154.858667 386.624 341.333334 386.624 186.496 0 341.333333-171.285333 341.333333-386.624 0-17.28-0.661333-32.768-1.877333-46.506667l-112.853334 18.368zM469.33344 742.784C253.738773 719.104 85.33344 517.888 85.33344 273.152 85.33344 190.506667 101.226773 141.802667 101.226773 141.802667a23.317333 23.317333 0 0 1 26.261334-16.832l193.024 35.413333c11.328 2.069333 27.2-3.349333 35.072-12.16L469.376107 20.586667C492.928107-5.76 532.266773-6.976 557.26944 17.92l131.669333 131.264c8.234667 8.192 24.405333 13.482667 35.946667 11.605333l171.946667-27.989333a24.64 24.64 0 0 1 26.837333 16.853333S938.666773 187.584 938.666773 273.152c0 244.693333-168.384 445.930667-384 469.610667v238.442666A42.624 42.624 0 0 1 512.000107 1024c-23.552 0-42.666667-18.944-42.666667-42.773333V742.784z m421.845333-17.173333a42.666667 42.666667 0 1 1 9.642667 84.778666c-100.394667 11.413333-190.144 67.370667-246.677333 151.978667a42.666667 42.666667 0 0 1-70.954667-47.402667c70.314667-105.216 182.336-175.082667 307.989333-189.354666z m-768 84.778666a42.666667 42.666667 0 1 1 9.642667-84.778666c125.653333 14.293333 237.696 84.138667 307.989333 189.354666a42.666667 42.666667 0 0 1-70.954666 47.402667c-56.533333-84.608-146.282667-140.565333-246.677334-151.978667z" p-id="8884" data-spm-anchor-id="a313x.7781069.0.i26" class="selected" fill="#4e8cee"></path></svg>