<?xml version="1.0" standalone="no"?><!DOCTYPE svg PUBLIC "-//W3C//DTD SVG 1.1//EN" "http://www.w3.org/Graphics/SVG/1.1/DTD/svg11.dtd"><svg t="1546416955157" class="icon" style="" viewBox="0 0 1024 1024" version="1.1" xmlns="http://www.w3.org/2000/svg" p-id="5936" xmlns:xlink="http://www.w3.org/1999/xlink" width="200" height="200"><defs><style type="text/css"></style></defs><path d="M112.598 843.645h299.078c18.367 0 33.232 14.865 33.232 33.229 0 18.37-14.865 33.232-33.232 33.232H112.598c-18.368 0-33.229-14.862-33.229-33.232 0-18.364 14.861-33.229 33.229-33.229z m498.461-498.461h299.078c18.367 0 33.232 14.863 33.232 33.23 0 18.368-14.865 33.23-33.232 33.23H611.059c-18.367 0-33.229-14.863-33.229-33.23 0-18.367 14.861-33.23 33.229-33.23zM112.598 611.03h299.078c18.367 0 33.232 14.863 33.232 33.23 0 18.368-14.865 33.232-33.232 33.232H112.598c-18.368 0-33.229-14.864-33.229-33.232 0-18.366 14.861-33.23 33.229-33.23zM611.059 145.8h299.078c18.367 0 33.232 14.863 33.232 33.23 0 18.368-14.865 33.23-33.232 33.23H611.059c-18.367 0-33.229-14.863-33.229-33.23 0-18.367 14.861-33.23 33.229-33.23z m99.694 432h99.693c73.406 0 132.923 59.517 132.923 132.923v99.693c0 73.406-59.517 132.922-132.923 132.922h-99.693c-73.406 0-132.923-59.516-132.923-132.922v-99.693c0-73.407 59.517-132.923 132.923-132.923zM212.291 79.338h99.694c73.406 0 132.922 59.516 132.922 132.922v99.692c0 73.406-59.516 132.922-132.922 132.922h-99.694c-73.406 0-132.922-59.516-132.922-132.922V212.26c0-73.406 59.516-132.922 132.922-132.922z" p-id="5937" data-spm-anchor-id="a313x.7781069.0.i39" class="" fill="#4e8cee"></path></svg>